<svg id="Layer_1" data-name="Layer 1" xmlns="http://www.w3.org/2000/svg" xmlns:xlink="http://www.w3.org/1999/xlink" viewBox="0 0 1125 2436"><defs><style>.cls-1,.cls-2,.cls-3{fill:none;stroke-linecap:round;stroke-miterlimit:10;}.cls-1{stroke-width:598px;stroke:url(#fahd-gra);}.cls-2,.cls-3{stroke-width:500px;}.cls-2{stroke:url(#fahd-gra-2);}.cls-3{stroke:url(#fahd-gra-3);}</style><linearGradient id="fahd-gra" x1="-373.5" y1="188.5" x2="750.5" y2="188.5" gradientUnits="userSpaceOnUse"><stop offset="0" stop-color="#ff8a00"/><stop offset="0.15" stop-color="#fd8209"/><stop offset="0.41" stop-color="#f76e23"/><stop offset="0.74" stop-color="#ee4c4c"/><stop offset="0.99" stop-color="#e52e71"/></linearGradient><linearGradient id="fahd-gra-2" x1="-370.09" y1="2272.14" x2="525.11" y2="2272.14" gradientTransform="translate(718.41 -1114.04)" xlink:href="#fahd-gra"/><linearGradient id="fahd-gra-3" x1="-1874.09" y1="1321.83" x2="-978.89" y2="1321.83" gradientTransform="matrix(1, 0, 0, -1, 2222.41, 3373.41)" xlink:href="#fahd-gra"/></defs><title>mb-fit</title><path class="cls-1" d="M-74.5-74.5h526a0,0,0,0,1,0,0V56.29A395.21,395.21,0,0,1,56.29,451.5H-74.5a0,0,0,0,1,0,0v-526A0,0,0,0,1-74.5-74.5Z"/><path class="cls-2" d="M598.31,960.5H993.52a0,0,0,0,1,0,0v0a395.21,395.21,0,0,1-395.21,395.21h0a0,0,0,0,1,0,0V960.5A0,0,0,0,1,598.31,960.5Z" transform="translate(1591.83 2316.21) rotate(-180)"/><path class="cls-3" d="M598.31,1854h0a395.21,395.21,0,0,1,395.21,395.21v0a0,0,0,0,1,0,0H598.31a0,0,0,0,1,0,0V1854A0,0,0,0,1,598.31,1854Z" transform="translate(1591.83 4103.17) rotate(180)"/></svg>